HIERARCHY
ROOT Hips
{
	OFFSET -0.001795 -0.223333 0.028219
	CHANNELS 6 Xposition Yposition Zposition Zrotation Yrotation Xrotation 
	JOINT LeftUpLeg
	{
		OFFSET 0.069520 -0.091406 -0.006815
		CHANNELS 3 Zrotation Yrotation Xrotation
		JOINT LeftLeg
		{
			OFFSET 0.034277 -0.375199 -0.004496
			CHANNELS 3 Zrotation Yrotation Xrotation
			JOINT LeftFoot
			{
				OFFSET -0.013596 -0.397961 -0.043693
				CHANNELS 3 Zrotation Yrotation Xrotation
				JOINT LeftToe
				{
					OFFSET 0.026358 -0.055791 0.119288
					CHANNELS 3 Zrotation Yrotation Xrotation
					End Site
					{
						OFFSET 0.000000 0.000000 0.000000
					}
				}
			}
		}
	}
	JOINT RightUpLeg
	{
		OFFSET -0.067670 -0.090522 -0.004320
		CHANNELS 3 Zrotation Yrotation Xrotation
		JOINT RightLeg
		{
			OFFSET -0.038290 -0.382569 -0.008850
			CHANNELS 3 Zrotation Yrotation Xrotation
			JOINT RightFoot
			{
				OFFSET 0.015774 -0.398415 -0.042312
				CHANNELS 3 Zrotation Yrotation Xrotation
				JOINT RightToe
				{
					OFFSET -0.025372 -0.048144 0.123348
					CHANNELS 3 Zrotation Yrotation Xrotation
					End Site
					{
						OFFSET 0.000000 0.000000 0.000000
					}
				}
			}
		}
	}
	JOINT Spine
	{
		OFFSET -0.002533 0.108963 -0.026696
		CHANNELS 3 Zrotation Yrotation Xrotation
		JOINT Spine1
		{
			OFFSET 0.005487 0.135180 0.001092
			CHANNELS 3 Zrotation Yrotation Xrotation
			JOINT Spine2
			{
				OFFSET 0.001457 0.052922 0.025425
				CHANNELS 3 Zrotation Yrotation Xrotation
				JOINT Neck
				{
					OFFSET -0.002778 0.213870 -0.042857
					CHANNELS 3 Zrotation Yrotation Xrotation
					JOINT Head
					{
						OFFSET 0.005152 0.064970 0.051349
						CHANNELS 3 Zrotation Yrotation Xrotation
						End Site
						{
							OFFSET 0.000000 0.000000 0.000000
						}
					}
				}
				JOINT LeftShoulder
				{
					OFFSET 0.078845 0.121749 -0.034090
					CHANNELS 3 Zrotation Yrotation Xrotation
					JOINT LeftArm
					{
						OFFSET 0.090977 0.030469 -0.008868
						CHANNELS 3 Zrotation Yrotation Xrotation
						JOINT LeftForeArm
						{
							OFFSET 0.259612 -0.012772 -0.027456
							CHANNELS 3 Zrotation Yrotation Xrotation
							JOINT LeftHand
							{
								OFFSET 0.249234 0.008986 -0.001171
								CHANNELS 3 Zrotation Yrotation Xrotation
								End Site
								{
									OFFSET 0.000000 0.000000 0.000000
								}
							}
						}
					}
				}
				JOINT RightShoulder
				{
					OFFSET -0.081759 0.118833 -0.038615
					CHANNELS 3 Zrotation Yrotation Xrotation
					JOINT RightArm
					{
						OFFSET -0.096012 0.032551 -0.009143
						CHANNELS 3 Zrotation Yrotation Xrotation
						JOINT RightForeArm
						{
							OFFSET -0.253742 -0.013329 -0.021401
							CHANNELS 3 Zrotation Yrotation Xrotation
							JOINT RightHand
							{
								OFFSET -0.255298 0.007772 -0.005559
								CHANNELS 3 Zrotation Yrotation Xrotation
								End Site
								{
									OFFSET 0.000000 0.000000 0.000000
								}
							}
						}
					}
				}
			}
		}
	}
}
MOTION
Frames: 9
Frame Time: 0.050000
0.025168 0.918566 0.487955 3.049563 -4.550561 34.119753 7.249686 -0.603994 -58.331350 -2.943443 0.398269 25.681486 2.354052 6.966354 5.633599 0.000000 0.000000 0.000000 1.413047 7.271053 -56.242068 0.063654 1.674789 32.359392 -3.553468 -10.371881 0.536095 0.000000 0.000000 0.000000 1.692784 -2.217520 44.984475 4.774652 -1.542240 -6.878643 -13.923256 14.454906 12.699018 22.135489 -8.411833 -23.377465 0.000000 0.000000 0.000000 51.536231 -20.368738 5.312882 54.090394 -44.033456 -28.133011 14.714014 25.645795 2.143938 0.000000 0.000000 0.000000 -39.120142 7.299725 -0.296059 -0.829894 42.452057 0.184859 -29.266497 -2.182942 2.306316 0.000000 0.000000 0.000000 
0.027430 0.913130 0.491786 2.194604 -5.270448 34.195289 7.398392 -0.218763 -58.740083 -2.494099 0.274482 24.285256 1.139278 5.158284 7.964652 0.000000 0.000000 0.000000 1.818545 7.739880 -56.454010 0.996404 1.359808 31.836891 -4.417984 -12.798760 0.426488 0.000000 0.000000 0.000000 1.038900 -1.652609 44.766151 4.240303 -1.374983 -6.700847 -13.133965 14.971027 13.503830 20.966728 -7.512698 -24.251378 0.000000 0.000000 0.000000 51.006475 -18.659563 5.556807 54.319251 -43.840133 -28.185732 14.972111 26.055110 2.201689 0.000000 0.000000 0.000000 -41.597601 5.363938 -0.524699 0.142849 42.972093 0.734823 -29.164064 -0.789246 2.001956 0.000000 0.000000 0.000000 
0.029223 0.907560 0.495421 1.817687 -6.077526 33.727163 7.429258 0.085720 -58.726445 -2.651396 0.369299 24.305761 0.879360 4.918633 9.102495 0.000000 0.000000 0.000000 2.058158 8.138128 -56.670624 1.868754 1.164039 33.154711 -4.591629 -12.974164 -0.742380 0.000000 0.000000 0.000000 0.050594 -0.943953 44.711715 4.424373 -1.437785 -6.873010 -13.439434 15.694937 13.991463 21.399070 -7.413291 -25.328132 0.000000 0.000000 0.000000 50.903590 -18.454989 5.645691 53.375647 -44.321063 -28.361368 17.274612 26.684315 2.734498 0.000000 0.000000 0.000000 -42.095698 4.678993 -0.704449 -0.867334 42.619416 0.530543 -28.565087 0.205614 1.765068 0.000000 0.000000 0.000000 
0.030273 0.902596 0.498796 1.366718 -7.106061 33.363325 7.823555 0.694019 -59.747359 -3.592445 0.785154 25.978532 0.627836 4.680331 10.176669 0.000000 0.000000 0.000000 1.821270 8.443249 -57.253585 3.205833 0.784327 34.608443 -4.958882 -14.127071 -0.658852 0.000000 0.000000 0.000000 -0.746609 -0.273893 45.335398 4.399635 -1.366107 -7.940530 -13.828102 16.223885 14.342943 21.424544 -7.192120 -26.053883 0.000000 0.000000 0.000000 50.719809 -18.095053 5.716377 52.204608 -44.586073 -28.067915 18.560520 25.785390 2.885049 0.000000 0.000000 0.000000 -42.644574 4.637167 -0.761752 -1.807905 41.653974 0.249983 -27.743541 1.454277 1.442679 0.000000 0.000000 0.000000 
0.030616 0.898578 0.502311 1.408437 -7.465344 33.382576 8.016688 0.981974 -60.939028 -4.220461 1.086143 27.774733 1.238512 5.868745 10.551289 0.000000 0.000000 0.000000 1.948659 8.553757 -57.087242 3.096146 0.882445 34.918944 -5.044549 -13.964611 -2.195910 0.000000 0.000000 0.000000 -0.965772 -0.072763 45.363599 4.031451 -1.180759 -8.982757 -13.641570 16.210540 15.111970 21.235642 -6.926780 -26.693924 0.000000 0.000000 0.000000 50.901474 -17.850737 5.626529 50.665231 -44.508816 -27.106962 18.187541 24.987204 2.690517 0.000000 0.000000 0.000000 -43.868224 3.695165 -0.741405 -2.153138 40.904391 0.131420 -26.995755 3.098375 1.054034 0.000000 0.000000 0.000000 
0.030798 0.895863 0.506805 1.036891 -7.955856 33.207673 8.425074 1.484619 -62.093806 -4.874095 1.460911 29.945591 1.420765 6.323015 11.183179 0.000000 0.000000 0.000000 2.385920 8.801486 -56.615222 3.760318 0.689424 35.244352 -5.507929 -14.996613 -3.504951 0.000000 0.000000 0.000000 -0.920204 0.032125 45.849905 3.893621 -1.106065 -9.569401 -13.942227 15.834683 14.798639 20.752210 -6.834874 -26.222747 0.000000 0.000000 0.000000 50.765816 -17.913415 5.535345 49.318288 -44.474767 -26.156621 16.473644 23.263933 2.185465 0.000000 0.000000 0.000000 -44.527348 3.796254 -0.581524 -2.619028 40.667912 -0.091141 -26.884406 4.164970 0.792351 0.000000 0.000000 0.000000 
0.030854 0.894962 0.512951 0.789826 -8.179655 32.784568 8.450060 1.632537 -62.499657 -4.803132 1.484515 30.855820 1.320412 6.249230 11.633156 0.000000 0.000000 0.000000 3.009399 8.784240 -54.905533 3.657077 0.707878 33.674627 -5.590231 -15.009885 -4.209016 0.000000 0.000000 0.000000 -0.959720 0.099516 45.650773 3.867294 -1.068995 -10.165947 -13.717818 15.767337 15.393430 20.175440 -6.757802 -25.633948 0.000000 0.000000 0.000000 50.490942 -18.077498 5.411351 47.618351 -44.045733 -24.889675 15.625657 20.384350 1.755632 0.000000 0.000000 0.000000 -45.261255 3.527156 -0.576427 -2.532886 40.961063 -0.079981 -27.367249 5.089202 0.606144 0.000000 0.000000 0.000000 
0.031138 0.893881 0.520854 0.608331 -8.423164 31.596948 8.598401 1.837589 -62.498427 -4.755471 1.607001 33.211072 0.986674 5.714304 11.863447 0.000000 0.000000 0.000000 4.015225 8.848543 -52.862010 3.564531 0.768479 32.901900 -5.705741 -15.005500 -4.849166 0.000000 0.000000 0.000000 -1.160974 0.299296 46.379770 3.884343 -1.071525 -10.326344 -13.769260 15.021194 15.449602 20.452322 -7.310934 -24.663806 0.000000 0.000000 0.000000 49.905626 -18.049313 5.211137 47.258589 -44.707493 -24.827685 14.843791 19.160801 1.557551 0.000000 0.000000 0.000000 -44.458594 3.891868 -0.478553 -3.812629 41.332051 -0.667622 -27.285381 5.104274 0.516047 0.000000 0.000000 0.000000 
0.032186 0.892579 0.529890 0.309590 -9.035911 30.792537 8.571276 2.108066 -62.952443 -4.354150 1.615605 35.964376 1.290263 6.161245 11.685274 0.000000 0.000000 0.000000 4.722084 8.807320 -50.802901 3.575712 0.827227 32.438334 -5.844466 -14.962454 -6.162510 0.000000 0.000000 0.000000 -1.480440 0.627061 46.772583 3.751223 -1.044386 -10.101553 -13.692416 14.909964 15.228509 20.144901 -7.627112 -23.198226 0.000000 0.000000 0.000000 49.208194 -19.489708 5.026764 46.730489 -44.161393 -24.072624 14.861053 18.123130 1.490050 0.000000 0.000000 0.000000 -43.138203 4.772759 -0.482367 -3.950750 41.463185 -0.842887 -28.660627 5.128457 0.527208 0.000000 0.000000 0.000000 
